<svg xmlns="http://www.w3.org/2000/svg" viewBox="0 0 245.006 100.682"><defs><style>.cls-1{fill:#fff;}</style></defs><title>FOLIO-Logo-White</title><g id="Layer_2" data-name="Layer 2"><g id="Layer_1-2" data-name="Layer 1"><path class="cls-1" d="M32.675,54.49h-13.3V99.511H5.215V54.49H0V48.105l5.215-1.491V38.739c0-12.028,4.364-20.116,16.816-20.116,6.067,0,11.921,3.618,11.921,3.618l-1.809,6.067s-4.577-2.555-7.557-2.555c-3.619,0-5.215,1.917-5.215,14.581V46.3h13.3Z"/><path class="cls-1" d="M59.748,100.682c-15.965,0-24.8-10.111-24.8-27.779s8.834-27.779,24.8-27.779c16.071,0,24.905,10.111,24.905,27.779S75.074,100.682,59.748,100.682ZM50.169,72.8c0,15.433,2.555,20.861,9.579,20.861S69.327,88.23,69.327,72.9s-2.555-20.648-9.579-20.648S50.169,57.577,50.169,72.8Z"/><path class="cls-1" d="M107.043,99.511H92.888v-79.4l14.155-.852Z"/><path class="cls-1" d="M127.052,22.029a7.819,7.819,0,0,1,5.428,2.022,8.7,8.7,0,0,1,2.342,6.066,8.961,8.961,0,0,1-2.342,6.174,8.352,8.352,0,0,1-5.428,2.022,8.657,8.657,0,0,1-5.64-2.129,8.617,8.617,0,0,1-2.448-6.067,8.368,8.368,0,0,1,2.448-5.96A8.13,8.13,0,0,1,127.052,22.029Zm7.024,77.482H119.921V46.3h14.155Z"/><path class="cls-1" d="M167.11,100.682c-15.965,0-24.8-10.111-24.8-27.779s8.833-27.779,24.8-27.779c16.071,0,24.9,10.111,24.9,27.779S182.436,100.682,167.11,100.682ZM157.531,72.8c0,15.433,2.554,20.861,9.579,20.861s9.579-5.428,9.579-20.755-2.555-20.648-9.579-20.648S157.531,57.577,157.531,72.8Z"/><path class="cls-1" d="M244.466,19.532a4.246,4.246,0,0,0-3.6-1.414,21.144,21.144,0,0,0-6.3,1.289,46.463,46.463,0,0,0-14.542,7.6,25.925,25.925,0,0,1-3.066,2.067,8.659,8.659,0,0,0-1.941-4.845,7.622,7.622,0,0,0-2.3-1.876,3.716,3.716,0,0,0,.5-.784,3.187,3.187,0,0,0,.121-.306c.024-.006.049-.01.072-.018.847-.285,1.114-1.684.608-3.184a4.285,4.285,0,0,0-1.014-1.7,1.577,1.577,0,0,0-1.117-.517,4.933,4.933,0,0,0-1.435-1.037,22.515,22.515,0,0,1,.781-2.859,31.7,31.7,0,0,1,1.882-4.35,25.674,25.674,0,0,1,2.55-3.981,13.193,13.193,0,0,1,1.592-1.7,5.261,5.261,0,0,1,1.9-1.157.392.392,0,0,0,.265-.483.389.389,0,0,0-.37-.276.377.377,0,0,0-.111.016,6.03,6.03,0,0,0-2.21,1.29,14.149,14.149,0,0,0-1.717,1.786,26.5,26.5,0,0,0-2.7,4.082,32.553,32.553,0,0,0-2,4.455,23.77,23.77,0,0,0-.836,2.876c-.047-.008-.092-.019-.139-.025a3.589,3.589,0,0,0-1.04.027,23.73,23.73,0,0,0-.836-2.877,32.631,32.631,0,0,0-2-4.456,26.7,26.7,0,0,0-2.7-4.082,14.084,14.084,0,0,0-1.718-1.786,6.021,6.021,0,0,0-2.209-1.29A.419.419,0,0,0,198.732,0h0a.386.386,0,0,0-.116.755,5.292,5.292,0,0,1,1.907,1.16,13.345,13.345,0,0,1,1.593,1.705A25.611,25.611,0,0,1,204.665,7.6a31.6,31.6,0,0,1,1.883,4.35,22.44,22.44,0,0,1,.781,2.863,4.768,4.768,0,0,0-1.283.875c-.052.05-.1.105-.152.157a1.566,1.566,0,0,0-1.12.517,4.275,4.275,0,0,0-1.015,1.7c-.5,1.5-.238,2.9.608,3.184.023.008.047.012.071.018a3.739,3.739,0,0,0,.633,1.108,7.629,7.629,0,0,0-2.454,2.054,8.672,8.672,0,0,0-1.8,4.715,24.713,24.713,0,0,1-3.19-2.133,46.467,46.467,0,0,0-14.541-7.6,21.144,21.144,0,0,0-6.3-1.289,4.246,4.246,0,0,0-3.6,1.414c-1.367,1.768.048,4.731,2.152,6.744.838.8,1.747,1.534,2.549,2.179a13.5,13.5,0,0,1,2.04,1.838.79.79,0,0,1,.064.083,13.284,13.284,0,0,1,6.259-2.084,57.3,57.3,0,0,1,14.535,1.387v.006c0,.166.006.332.013.5A52.383,52.383,0,0,0,188.7,28.892c-1.428,0-2.327.047-2.357.049a12.375,12.375,0,0,0-6.124,2.048c-.129.094-.249.19-.365.289s-.247.22-.358.335a3.048,3.048,0,0,0-.773,1.225c-.325,1.107.326,2.261,1.937,3.43,3.932,2.855,10.124,4.018,15.093.181,1.8-1.393,3.287-2.465,4.461-3.232.365-.238.7-.448,1-.625A8.518,8.518,0,0,0,202.447,35a7.777,7.777,0,0,0,1.475,1.535,14.155,14.155,0,0,0-1.764,2.475,17.366,17.366,0,0,0-1.113,2.391c-.226.589-.412,1.135-.569,1.669l-.016.06a19.737,19.737,0,0,0-.563,2.648c-.088.61-.141,1.123-.168,1.612,0,.059-.006.119-.008.178l0,.089a11.015,11.015,0,0,0,.083,1.971c.031.229.072.456.118.682A13.61,13.61,0,0,0,200.3,51.8c.053.167.114.33.175.493l.054.146a17.805,17.805,0,0,0,1.253,2.661l.047.083c.109.189.217.379.332.565.316.511.674,1.038,1.064,1.568a20.846,20.846,0,0,0,1.549,1.877A16.518,16.518,0,0,0,206.35,60.7a6.333,6.333,0,0,0,1.932,1.158,1.761,1.761,0,0,0,.581.094,2.008,2.008,0,0,0,.719-.132,4.573,4.573,0,0,0,1.027-.529,11.163,11.163,0,0,0,1.693-1.4,21.944,21.944,0,0,0,2.182-2.511c.2-.267.394-.538.581-.815.307-.456.607-.942.917-1.486a18.18,18.18,0,0,0,1.142-2.347l.075-.2a14.575,14.575,0,0,0,.642-2.238,10.839,10.839,0,0,0,.213-1.9c0-.154-.006-.308-.013-.462l-.006-.173a18.833,18.833,0,0,0-.178-1.994,19.844,19.844,0,0,0-.535-2.525c-.171-.606-.379-1.224-.617-1.838-.22-.567-.429-1.057-.642-1.5a14.663,14.663,0,0,0-2.224-3.351,7.785,7.785,0,0,0,1.61-1.7,8.432,8.432,0,0,0,1.09-2.188c.276.165.572.349.894.56,1.175.767,2.658,1.839,4.462,3.232,4.969,3.837,11.161,2.674,15.093-.181,1.61-1.169,2.262-2.323,1.937-3.43a3.048,3.048,0,0,0-.773-1.225c-.111-.115-.23-.226-.358-.335s-.237-.2-.365-.289a12.379,12.379,0,0,0-6.124-2.048c-.031,0-.929-.049-2.358-.049a52.7,52.7,0,0,0-11.954,1.254c.006-.166,0-.332,0-.5a57.484,57.484,0,0,1,14.41-1.356,13.293,13.293,0,0,1,6.264,2.079c.022-.031.042-.055.059-.078a13.451,13.451,0,0,1,2.04-1.838c.8-.645,1.71-1.377,2.549-2.179C244.418,24.263,245.833,21.3,244.466,19.532ZM211.3,17.194c.067-.431.24-.723.476-.8a.471.471,0,0,1,.147-.023,1.051,1.051,0,0,1,.639.3c.027.024.053.043.08.069a3.741,3.741,0,0,1,.881,1.486,2.92,2.92,0,0,1,.012,2.263.571.571,0,0,1-.29.257c-.477.162-1.314-.553-1.747-1.837A3.746,3.746,0,0,1,211.3,17.194Zm-6.769,3.554a.57.57,0,0,1-.293-.26,2.929,2.929,0,0,1,.014-2.26,3.765,3.765,0,0,1,.881-1.486c.027-.025.052-.042.079-.065a.871.871,0,0,1,.787-.286c.236.08.41.372.477.8a3.748,3.748,0,0,1-.2,1.717C205.849,20.2,205.013,20.909,204.535,20.748Zm12.808,25.125a18.27,18.27,0,0,1,.168,1.894l0,.067a31.262,31.262,0,0,1-17.272-.094c0-.021,0-.04,0-.061l0-.092c0-.055,0-.11.007-.165.026-.465.077-.954.159-1.534a29.532,29.532,0,0,0,16.932-.015ZM214.63,56.267c-.182.27-.372.534-.566.795-.057.076-.116.149-.174.224a28.917,28.917,0,0,1-10.072-.065c-.055-.074-.111-.145-.167-.221-.382-.518-.732-1.034-1.04-1.533-.086-.139-.168-.282-.249-.425A27.81,27.81,0,0,0,215.4,55.03C215.142,55.476,214.888,55.884,214.63,56.267Zm2.077-3.926-.065.178a29.8,29.8,0,0,1-15.549-.093c-.022-.058-.047-.116-.068-.173l-.055-.149c-.058-.155-.116-.309-.166-.468-.138-.431-.249-.863-.34-1.29a28.259,28.259,0,0,0,16.83-.014A13.944,13.944,0,0,1,216.707,52.341Zm.11-8.969,0,.016-.037.012a24.643,24.643,0,0,1-15.822-.114l0-.008.015-.058c.153-.52.335-1.053.556-1.629l.006-.016a23.205,23.205,0,0,0,14.5.056l.177-.057,0,.007C216.448,42.18,216.65,42.783,216.817,43.372Z"/></g></g></svg>